<?xml version="1.0" standalone="no"?><!DOCTYPE svg PUBLIC "-//W3C//DTD SVG 1.1//EN" "http://www.w3.org/Graphics/SVG/1.1/DTD/svg11.dtd"><svg t="1578548199487" class="icon" viewBox="0 0 1029 1024" version="1.1" xmlns="http://www.w3.org/2000/svg" p-id="4129" xmlns:xlink="http://www.w3.org/1999/xlink" width="200.9765625" height="200"><defs><style type="text/css"></style></defs><path d="M514.547 5.095c-281.32 0-509.452 228.127-509.452 509.452S233.125 1024 514.547 1024C795.765 1024 1024 795.872 1024 514.547S795.872 5.095 514.547 5.095z" fill="#FFDF6B" p-id="4130"></path><path d="M739.114 642.629c-12.838-5.711-27.918 0.198-33.624 13.042-24.352 55.326-92.827 111.06-191.045 111.06-92.42 0-163.845-57.364-191.253-110.658-6.42-12.527-21.907-17.423-34.337-10.999a25.529 25.529 0 0 0-11.106 34.332c18.646 36.38 50.537 70.208 89.663 95.064 44.424 28.33 95.166 43.202 146.82 43.202 53.39 0 104.335-14.061 147.231-40.553 40.655-25.065 72.648-60.93 90.28-100.871a24.877 24.877 0 0 0-12.629-33.62zM362.221 512.31c28.02 0 50.945-22.926 50.945-50.946V410.62c0-28.02-22.925-50.945-50.945-50.945s-50.945 22.925-50.945 50.945v50.746c0 28.02 22.925 50.946 50.945 50.946z m305.672 0c28.02 0 50.945-22.926 50.945-50.946V410.62c0-28.02-22.926-50.945-50.945-50.945s-50.946 22.925-50.946 50.945v50.746c0 28.02 22.926 50.946 50.946 50.946z" fill="#975D00" p-id="4131"></path></svg>