<?xml version="1.0" standalone="no"?><!DOCTYPE svg PUBLIC "-//W3C//DTD SVG 1.1//EN" "http://www.w3.org/Graphics/SVG/1.1/DTD/svg11.dtd"><svg class="icon" width="200px" height="200.00px" viewBox="0 0 1024 1024" version="1.1" xmlns="http://www.w3.org/2000/svg"><path d="M196.266667 964.266667a341.333333 32 0 1 0 682.666666 0 341.333333 32 0 1 0-682.666666 0Z" fill="#45413C" opacity=".15" /><path d="M113.804092 504.467797a426.666667 426.666667 0 1 0 847.444645-100.076722 426.666667 426.666667 0 1 0-847.444645 100.076722Z" fill="#FFE500" /><path d="M488.533333 32C253.866667 59.733333 85.333333 270.933333 113.066667 505.6c27.733333 234.666667 238.933333 401.066667 473.6 373.333333C821.333333 851.2 987.733333 640 960 405.333333 934.4 170.666667 721.066667 4.266667 488.533333 32z m91.733334 782.933333c-213.333333 25.6-407.466667-128-433.066667-341.333333-25.6-213.333333 128-407.466667 341.333333-433.066667s407.466667 128 433.066667 341.333334c25.6 215.466667-128 407.466667-341.333333 433.066666z" fill="#EBCB00" /><path d="M369.867408 130.301726a32 128 83.265 1 0 254.233394-30.023017 32 128 83.265 1 0-254.233394 30.023017Z" fill="#FFF48C" /><path d="M751.329045 537.498357a32 53.333333 83.265 1 0 105.930581-12.50959 32 53.333333 83.265 1 0-105.930581 12.50959Z" fill="#FFAA54" /><path d="M243.554355 597.126169a32 53.333333 83.265 1 0 105.930581-12.50959 32 53.333333 83.265 1 0-105.930581 12.50959Z" fill="#FFAA54" /><path d="M537.6 480c-66.133333-27.733333-123.733333 64-215.466667 100.266667-91.733333 34.133333-241.066667 8.533333-241.066666 8.533333s-49.066667 78.933333-4.266667 130.133333c44.8 51.2 115.2 38.4 157.866667 85.333334 40.533333 44.8 19.2 123.733333 19.2 123.733333s177.066667-83.2 245.333333-202.666667c74.666667-128 93.866667-221.866667 38.4-245.333333z" fill="#F0F0F0" /><path d="M537.6 480c-66.133333-27.733333-123.733333 64-215.466667 100.266667-91.733333 34.133333-241.066667 8.533333-241.066666 8.533333s-49.066667 78.933333-4.266667 130.133333 115.2 38.4 157.866667 85.333334c4.266667 4.266667 6.4 8.533333 8.533333 12.8 76.8-29.866667 192-85.333333 256-162.133334 25.6-32 49.066667-61.866667 66.133333-89.6 8.533333-46.933333 0-74.666667-27.733333-85.333333z" fill="#FFFFFF" /></svg>