<?xml version="1.0" standalone="no"?><!DOCTYPE svg PUBLIC "-//W3C//DTD SVG 1.1//EN" "http://www.w3.org/Graphics/SVG/1.1/DTD/svg11.dtd"><svg class="icon" width="200px" height="200.00px" viewBox="0 0 1024 1024" version="1.1" xmlns="http://www.w3.org/2000/svg"><path d="M256 970.666667a256 32 0 1 0 512 0 256 32 0 1 0-512 0Z" fill="#45413C" opacity=".15" /><path d="M512 663.466667c-392.533333 0-554.666667-183.466667-465.066667-309.333334 78.933333-108.8 236.8 61.866667 465.066667 61.866667s386.133333-170.666667 465.066667-61.866667C1066.666667 480 904.533333 663.466667 512 663.466667z" fill="#F0D5A8" /><path d="M942.933333 326.4c-85.333333-40.533333-232.533333 89.6-430.933333 89.6S166.4 283.733333 81.066667 326.4C12.8 441.6 164.266667 599.466667 512 599.466667s499.2-157.866667 430.933333-273.066667z" fill="#DEBB7E" /><path d="M512 586.666667m-309.333333 0a309.333333 309.333333 0 1 0 618.666666 0 309.333333 309.333333 0 1 0-618.666666 0Z" fill="#FFE500" /><path d="M512 277.333333c-108.8 0-204.8 57.6-260.266667 142.933334 76.8 32 164.266667 61.866667 262.4 61.866666 96 0 183.466667-27.733333 258.133334-59.733333-53.333333-87.466667-149.333333-145.066667-260.266667-145.066667z" fill="#EBCB00" /><path d="M512 277.333333c-170.666667 0-309.333333 138.666667-309.333333 309.333334S341.333333 896 512 896s309.333333-138.666667 309.333333-309.333333S682.666667 277.333333 512 277.333333z m0 571.733334c-155.733333 0-281.6-125.866667-281.6-281.6 0-155.733333 125.866667-281.6 281.6-281.6s281.6 125.866667 281.6 281.6c0 155.733333-125.866667 281.6-281.6 281.6z" fill="#EBCB00" /><path d="M659.2 663.466667a38.4 23.466667 0 1 0 76.8 0 38.4 23.466667 0 1 0-76.8 0Z" fill="#FFAA54" /><path d="M288 663.466667a38.4 23.466667 0 1 0 76.8 0 38.4 23.466667 0 1 0-76.8 0Z" fill="#FFAA54" /><path d="M349.866667 571.733333m-14.933334 0a14.933333 14.933333 0 1 0 29.866667 0 14.933333 14.933333 0 1 0-29.866667 0Z" fill="#45413C" /><path d="M674.133333 571.733333m-14.933333 0a14.933333 14.933333 0 1 0 29.866667 0 14.933333 14.933333 0 1 0-29.866667 0Z" fill="#45413C" /><path d="M512 849.066667c87.466667 0 160-61.866667 170.666667-140.8 0-4.266667-2.133333-10.666667-4.266667-12.8-4.266667-4.266667-8.533333-4.266667-14.933333-4.266667-100.266667 17.066667-200.533333 17.066667-302.933334 0-4.266667 0-10.666667 0-14.933333 4.266667-2.133333 2.133333-4.266667 8.533333-4.266667 12.8 10.666667 78.933333 83.2 140.8 170.666667 140.8z" fill="#FFB0CA" /><path d="M512 772.266667c-49.066667 0-96 10.666667-125.866667 25.6 32 32 74.666667 51.2 125.866667 51.2s93.866667-19.2 125.866667-51.2c-29.866667-14.933333-76.8-25.6-125.866667-25.6z" fill="#FF87AF" /><path d="M512 416c89.6 0 166.4-25.6 234.666667-51.2l-42.666667-138.666667c-4.266667-17.066667-14.933333-34.133333-29.866667-44.8L618.666667 136.533333c-12.8-10.666667-32-12.8-46.933334-2.133333-17.066667 10.666667-34.133333 23.466667-61.866666 23.466667-27.733333 0-44.8-10.666667-61.866667-23.466667-14.933333-8.533333-34.133333-8.533333-46.933333 2.133333l-55.466667 44.8c-10.666667 10.666667-21.333333 25.6-25.6 44.8l-42.666667 138.666667c68.266667 25.6 145.066667 51.2 234.666667 51.2z" fill="#B89558" /><path d="M328.533333 236.8L390.4 192c14.933333-10.666667 36.266667-12.8 53.333333-2.133333 19.2 10.666667 38.4 23.466667 68.266667 23.466666 29.866667 0 49.066667-10.666667 68.266667-23.466666 17.066667-10.666667 38.4-8.533333 53.333333 2.133333l61.866667 44.8c6.4 4.266667 12.8 10.666667 19.2 17.066667l-10.666667-27.733334c-4.266667-17.066667-14.933333-34.133333-29.866667-44.8L618.666667 136.533333c-12.8-10.666667-32-12.8-46.933334-2.133333-17.066667 10.666667-34.133333 23.466667-61.866666 23.466667-27.733333 0-44.8-10.666667-61.866667-23.466667-14.933333-8.533333-34.133333-8.533333-46.933333 2.133333l-55.466667 44.8c-10.666667 10.666667-21.333333 25.6-25.6 44.8l-8.533333 27.733334c4.266667-6.4 10.666667-12.8 17.066666-17.066667z" fill="#DEBB7E" /></svg>