<?xml version="1.0" standalone="no"?><!DOCTYPE svg PUBLIC "-//W3C//DTD SVG 1.1//EN" "http://www.w3.org/Graphics/SVG/1.1/DTD/svg11.dtd"><svg class="icon" width="200px" height="200.00px" viewBox="0 0 1024 1024" version="1.1" xmlns="http://www.w3.org/2000/svg"><path d="M823.466667 462.933333c0-57.6-46.933333-104.533333-104.533334-104.533333H305.066667c-57.6 0-104.533333 46.933333-104.533334 104.533333v381.866667c0 57.6 46.933333 104.533333 104.533334 104.533333h416c57.6 0 104.533333-46.933333 104.533333-104.533333V462.933333z" fill="#ADC4D9" /><path d="M718.933333 360.533333H305.066667c-57.6 0-104.533333 46.933333-104.533334 104.533334v51.2c0-57.6 46.933333-104.533333 104.533334-104.533334h416c57.6 0 104.533333 46.933333 104.533333 104.533334v-51.2c-2.133333-59.733333-49.066667-104.533333-106.666667-104.533334z" fill="#C0DCEB" /><path d="M823.466667 697.6H580.266667c-38.4 0-68.266667-32-68.266667-68.266667V360.533333h206.933333c57.6 0 104.533333 46.933333 104.533334 104.533334v232.533333z" fill="#8CA4B8" /><path d="M819.2 433.066667c-12.8-42.666667-53.333333-72.533333-100.266667-72.533334H512v51.2h206.933333c57.6 0 104.533333 46.933333 104.533334 104.533334v-51.2c0-12.8-2.133333-23.466667-4.266667-32z" fill="#ADC4D9" /><path d="M181.333333 970.666667a330.666667 32 0 1 0 661.333334 0 330.666667 32 0 1 0-661.333334 0Z" fill="#45413C" opacity=".15" /><path d="M718.933333 940.8c0 19.2-14.933333 34.133333-34.133333 34.133333H339.2c-19.2 0-34.133333-14.933333-34.133333-34.133333v-121.6c0-19.2 14.933333-34.133333 34.133333-34.133333h345.6c19.2 0 34.133333 14.933333 34.133333 34.133333v121.6z" fill="#C0DCEB" /><path d="M718.933333 819.2c0-19.2-14.933333-34.133333-34.133333-34.133333H339.2c-19.2 0-34.133333 14.933333-34.133333 34.133333v42.666667c0-19.2 14.933333-34.133333 34.133333-34.133334h345.6c19.2 0 34.133333 14.933333 34.133333 34.133334v-42.666667z" fill="#DAEDF7" /><path d="M347.733333 533.333333m-87.466666 0a87.466667 87.466667 0 1 0 174.933333 0 87.466667 87.466667 0 1 0-174.933333 0Z" fill="#FFFFFF" /><path d="M347.733333 533.333333m-42.666666 0a42.666667 42.666667 0 1 0 85.333333 0 42.666667 42.666667 0 1 0-85.333333 0Z" fill="#00DBA8" /><path d="M676.266667 533.333333m-87.466667 0a87.466667 87.466667 0 1 0 174.933333 0 87.466667 87.466667 0 1 0-174.933333 0Z" fill="#FFFFFF" /><path d="M676.266667 533.333333m-34.133334 0a34.133333 34.133333 0 1 0 68.266667 0 34.133333 34.133333 0 1 0-68.266667 0Z" fill="#00B8F0" /><path d="M347.733333 819.2m-8.533333 0a8.533333 8.533333 0 1 0 17.066667 0 8.533333 8.533333 0 1 0-17.066667 0Z" fill="#C0DCEB" /><path d="M347.733333 810.666667c-4.266667 0-8.533333 4.266667-8.533333 8.533333s4.266667 8.533333 8.533333 8.533333 8.533333-4.266667 8.533334-8.533333-4.266667-8.533333-8.533334-8.533333z" fill="#45413C" /><path d="M676.266667 819.2m-8.533334 0a8.533333 8.533333 0 1 0 17.066667 0 8.533333 8.533333 0 1 0-17.066667 0Z" fill="#C0DCEB" /><path d="M676.266667 810.666667c-4.266667 0-8.533333 4.266667-8.533334 8.533333s4.266667 8.533333 8.533334 8.533333 8.533333-4.266667 8.533333-8.533333-4.266667-8.533333-8.533333-8.533333z" fill="#45413C" /><path d="M789.333333 646.4m-8.533333 0a8.533333 8.533333 0 1 0 17.066667 0 8.533333 8.533333 0 1 0-17.066667 0Z" fill="#C0DCEB" /><path d="M789.333333 637.866667c-4.266667 0-8.533333 4.266667-8.533333 8.533333s4.266667 8.533333 8.533333 8.533333 8.533333-4.266667 8.533334-8.533333c0-6.4-4.266667-8.533333-8.533334-8.533333z" fill="#45413C" /><path d="M554.666667 646.4m-8.533334 0a8.533333 8.533333 0 1 0 17.066667 0 8.533333 8.533333 0 1 0-17.066667 0Z" fill="#C0DCEB" /><path d="M554.666667 637.866667c-4.266667 0-8.533333 4.266667-8.533334 8.533333s4.266667 8.533333 8.533334 8.533333 8.533333-4.266667 8.533333-8.533333c0-6.4-2.133333-8.533333-8.533333-8.533333z" fill="#45413C" /><path d="M554.666667 394.666667m-8.533334 0a8.533333 8.533333 0 1 0 17.066667 0 8.533333 8.533333 0 1 0-17.066667 0Z" fill="#C0DCEB" /><path d="M554.666667 386.133333c-4.266667 0-8.533333 4.266667-8.533334 8.533334s4.266667 8.533333 8.533334 8.533333 8.533333-4.266667 8.533333-8.533333-2.133333-8.533333-8.533333-8.533334z" fill="#45413C" /><path d="M693.333333 64m-42.666666 0a42.666667 42.666667 0 1 0 85.333333 0 42.666667 42.666667 0 1 0-85.333333 0Z" fill="#FF6242" /><path d="M633.6 360.533333H390.4c0-34.133333 27.733333-59.733333 59.733333-59.733333h121.6c34.133333-2.133333 61.866667 25.6 61.866667 59.733333z" fill="#ADC4D9" /><path d="M840.533333 793.6h-17.066666v-277.333333h17.066666c27.733333 0 51.2 23.466667 51.2 51.2v172.8c2.133333 29.866667-21.333333 53.333333-51.2 53.333333zM183.466667 793.6h17.066666v-277.333333h-17.066666c-27.733333 0-51.2 23.466667-51.2 51.2v172.8c-2.133333 29.866667 21.333333 53.333333 51.2 53.333333z" fill="#FFE500" /></svg>