<?xml version="1.0" standalone="no"?><!DOCTYPE svg PUBLIC "-//W3C//DTD SVG 1.1//EN" "http://www.w3.org/Graphics/SVG/1.1/DTD/svg11.dtd"><svg class="icon" width="200px" height="200.00px" viewBox="0 0 1024 1024" version="1.1" xmlns="http://www.w3.org/2000/svg"><path d="M179.2 960a332.8 36.266667 0 1 0 665.6 0 332.8 36.266667 0 1 0-665.6 0Z" fill="#45413C" opacity=".15" /><path d="M512 503.466667m-386.133333 0a386.133333 386.133333 0 1 0 772.266666 0 386.133333 386.133333 0 1 0-772.266666 0Z" fill="#FFDA8F" /><path d="M512 117.333333c-213.333333 0-386.133333 172.8-386.133333 386.133334s172.8 384 386.133333 384c213.333333 0 386.133333-172.8 386.133333-386.133334S725.333333 117.333333 512 117.333333z m0 712.533334c-194.133333 0-352-157.866667-352-352S317.866667 125.866667 512 125.866667s352 157.866667 352 352S706.133333 829.866667 512 829.866667z" fill="#FFBE3D" /><path d="M695.466667 684.8a49.066667 29.866667 0 1 0 98.133333 0 49.066667 29.866667 0 1 0-98.133333 0Z" fill="#FFE9BD" /><path d="M230.4 684.8a49.066667 29.866667 0 1 0 98.133333 0 49.066667 29.866667 0 1 0-98.133333 0Z" fill="#FFE9BD" /><path d="M113.066667 426.666667C113.066667 206.933333 292.266667 27.733333 512 27.733333c219.733333 0 398.933333 179.2 398.933333 398.933334H113.066667z" fill="#FFE500" /><path d="M512 117.333333c189.866667 0 347.733333 132.266667 388.266667 309.333334h10.666666C910.933333 206.933333 731.733333 27.733333 512 27.733333 292.266667 27.733333 113.066667 206.933333 113.066667 426.666667h10.666666C164.266667 249.6 322.133333 117.333333 512 117.333333z" fill="#FFF48C" /><path d="M70.4 401.066667c0-23.466667 21.333333-40.533333 42.666667-34.133334 70.4 14.933333 224 42.666667 398.933333 42.666667s328.533333-27.733333 398.933333-42.666667c21.333333-4.266667 42.666667 12.8 42.666667 34.133334v29.866666c0 17.066667-12.8 32-29.866667 36.266667-64 12.8-234.666667 44.8-411.733333 44.8S164.266667 480 98.133333 467.2c-17.066667-4.266667-29.866667-19.2-29.866666-36.266667v-29.866666z" fill="#FFE500" /><path d="M910.933333 364.8c-70.4 14.933333-224 42.666667-398.933333 42.666667s-328.533333-27.733333-398.933333-42.666667c-21.333333-4.266667-42.666667 12.8-42.666667 34.133333v29.866667c0 4.266667 0 6.4 2.133333 8.533333 4.266667-17.066667 23.466667-29.866667 42.666667-25.6 70.4 14.933333 224 42.666667 398.933333 42.666667s328.533333-27.733333 398.933334-42.666667c19.2-4.266667 36.266667 8.533333 42.666666 25.6 0-2.133333 2.133333-6.4 2.133334-8.533333v-29.866667c-2.133333-21.333333-23.466667-38.4-46.933334-34.133333z" fill="#FFF48C" /><path d="M601.6 194.133333h-44.8V149.333333c0-12.8-10.666667-23.466667-23.466667-23.466666h-42.666666c-12.8 0-23.466667 10.666667-23.466667 23.466666v44.8h-44.8c-12.8 0-23.466667 10.666667-23.466667 23.466667v42.666667c0 12.8 10.666667 23.466667 23.466667 23.466666h44.8v44.8c0 12.8 10.666667 23.466667 23.466667 23.466667h42.666666c12.8 0 23.466667-10.666667 23.466667-23.466667v-44.8h44.8c12.8 0 23.466667-10.666667 23.466667-23.466666v-42.666667c0-12.8-10.666667-23.466667-23.466667-23.466667z" fill="#6DD627" /></svg>